<svg width="316" height="106" viewBox="0 0 316 106" fill="none" xmlns="http://www.w3.org/2000/svg">
<path d="M135.288 34.25L150.988 -3.09944e-06H152.188L167.888 34.25H164.088L159.888 25H143.238L139.088 34.25H135.288ZM144.738 21.75H158.438L151.538 6.6L144.738 21.75ZM170.632 34.25V0.399998H174.132V34.25H170.632ZM-6.10948e-07 95.25V61.4H19.7V64.7H3.5V76.45H18.7V79.75H3.5V91.95H20.35L19.15 95.25H-6.10948e-07ZM22.2977 95.25L31.6977 83.3L22.3477 71.4H26.3477L33.8477 81.05L41.3477 71.4H45.2477L35.9477 83.25L45.3977 95.25H41.4477L33.7477 85.6L26.1477 95.25H22.2977ZM47.9746 105.25V83.6C47.9746 75.6 52.9746 70.85 59.9746 70.85C66.7246 70.85 72.0246 75.8 72.0246 82.9C72.0246 89.65 67.1746 95.25 59.0246 95.25H56.3246L55.1746 92.05H58.7746C65.4746 92.05 68.5746 87.65 68.5746 82.85C68.5746 77.45 64.6246 74.1 59.9746 74.1C54.9746 74.1 51.3246 77.5 51.3246 83.7V105.25H47.9746ZM88.2125 95.25C79.7625 95.25 74.7125 89.65 74.7125 83C74.7125 76.45 79.4625 70.9 86.6625 70.9C93.3125 70.85 97.9125 75.7 97.9125 81.45C97.9125 84.25 96.8125 86.35 95.2625 88.65H91.4625C93.2125 86.2 94.4125 84.2 94.4125 81.75C94.4125 77.6 91.3125 74.1 86.6625 74.1C81.5125 74.1 78.1625 78.2 78.1625 82.95C78.1625 87.75 81.5625 92.05 88.5125 92.05H97.1625L95.9625 95.25H88.2125ZM101.541 81.9C101.541 75.25 105.741 70.85 111.941 70.85C118.041 70.85 122.291 75.25 122.291 81.9V95.25H118.941V81.9C118.941 77.2 116.091 74.1 111.941 74.1C107.691 74.1 104.891 77.2 104.891 81.9V95.25H101.541V81.9ZM126.784 95.25L125.634 92.05H130.134C134.284 92.05 137.034 90 137.034 86.55C137.034 84.5 135.934 82.85 132.034 80.05C127.934 77 125.684 74.9 126.134 71.4H129.584C129.284 73.85 130.984 75.15 134.534 77.85C138.784 81.05 140.434 83.15 140.434 86.55C140.434 91.9 136.184 95.25 130.434 95.25H126.784ZM156.279 95.25C147.829 95.25 142.779 89.65 142.779 83C142.779 76.45 147.529 70.9 154.729 70.9C161.379 70.85 165.979 75.7 165.979 81.45C165.979 84.25 164.879 86.35 163.329 88.65H159.529C161.279 86.2 162.479 84.2 162.479 81.75C162.479 77.6 159.379 74.1 154.729 74.1C149.579 74.1 146.229 78.2 146.229 82.95C146.229 87.75 149.629 92.05 156.579 92.05H165.229L164.029 95.25H156.279ZM189.789 95.25V64.7H179.089V61.4H204.039V64.7H193.289V95.25H189.789ZM201.008 79.25C201.008 74.45 203.808 71.4 208.358 71.4H211.808V74.6H208.708C206.308 74.6 204.358 75.9 204.358 79.4V95.25H201.008V79.25ZM225.31 95.25C217.16 95.25 212.31 89.65 212.31 82.9C212.31 75.8 217.61 70.85 224.36 70.85C231.36 70.85 236.36 75.6 236.36 83.6V95.25H233.01V83.7C233.01 77.5 229.36 74.1 224.36 74.1C219.71 74.1 215.76 77.45 215.76 82.85C215.76 87.65 218.86 92.05 225.56 92.05H229.16L228.01 95.25H225.31ZM252.397 95.25C244.947 95.25 239.947 90 239.947 83.35C239.947 76.8 244.897 71.4 252.397 71.4H255.547V74.6H252.497C246.897 74.6 243.397 78.55 243.397 83.3C243.397 88.05 246.897 92.05 252.497 92.05H256.047L254.847 95.25H252.397ZM273.712 95.25L262.812 83.65V95.25H259.462V61.4H262.812V82.55L273.462 71.4H277.662L266.562 83L278.062 95.25H273.712ZM291.728 95.25C283.278 95.25 278.228 89.65 278.228 83C278.228 76.45 282.978 70.9 290.178 70.9C296.828 70.85 301.428 75.7 301.428 81.45C301.428 84.25 300.328 86.35 298.778 88.65H294.978C296.728 86.2 297.928 84.2 297.928 81.75C297.928 77.6 294.828 74.1 290.178 74.1C285.028 74.1 281.678 78.2 281.678 82.95C281.678 87.75 285.078 92.05 292.028 92.05H300.678L299.478 95.25H291.728ZM305.207 79.25C305.207 74.45 308.007 71.4 312.557 71.4H316.007V74.6H312.907C310.507 74.6 308.557 75.9 308.557 79.4V95.25H305.207V79.25Z" fill="black"/>
</svg>
